# xmcd
#
# Track frame offsets: 
#        150
#        19397
#        40627
#        51352
#        68167
#        91887
#        115257
#        134770
#        157442
#        172667
#        188185
#        206260
#        215165
#        254195
#        271575
#        286772
#
# Disc length: 3983 seconds
#
# Revision: 0
# Processed by: cddbd v1.5.2PL0 Copyright (c) Steve Scherf et al.
# Submitted via: ExactAudioCopy v1.3
#
DISCID=f20f8d10
DTITLE=Paul Lamb and The King Snakes - John Henry Jumps In
DYEAR=1996
DGENRE=Harmonica Blues, Electric Blues
TTITLE0=The Pillow
TTITLE1=If The Tables Were Turned
TTITLE2=Sweet, Sweet Woman
TTITLE3=I'm Packin' Up
TTITLE4=My Prayer
TTITLE5=That's No Good To Me
TTITLE6=Sometimes I Wonder
TTITLE7=All Because Of You
TTITLE8=Roll With It
TTITLE9=Should Be Mine
TTITLE10=Waiting on You
TTITLE11=John Henry Jumps In
TTITLE12=Don't Answer The Door
TTITLE13=Come Back Baby
TTITLE14=My Baby Left Me
TTITLE15=Jump For It
EXTD=
EXTT0=
EXTT1=
EXTT2=
EXTT3=
EXTT4=
EXTT5=
EXTT6=
EXTT7=
EXTT8=
EXTT9=
EXTT10=
EXTT11=
EXTT12=
EXTT13=
EXTT14=
EXTT15=
PLAYORDER=
